<svg width="102" height="102" viewBox="0 0 102 102" fill="none" xmlns="http://www.w3.org/2000/svg">
<path d="M102 102H0V0H102V102ZM56.1904 21.4287C53.5483 20.9938 51.6173 20.9338 48.9932 21.0557C40.5521 21.7844 32.8745 25.3269 27.3682 31.8506C22.1837 37.9932 19.3972 46.0729 20.1104 54.1035C20.8438 62.3616 24.5965 69.9592 31.0273 75.3066C33.4949 77.3584 36.2005 78.9339 39.1484 80.1953C39.9854 80.5533 41.0138 81.0534 41.9424 80.9648C42.3135 80.9295 42.7331 80.7704 42.9746 80.4746C43.466 79.8723 43.221 74.9218 43.2334 73.8604C40.3801 74.3922 36.0315 74.9403 33.5635 73.1816C31.5134 71.7208 31.5316 70.4488 30.0732 68.583C29.3539 67.6627 27.5259 66.7323 27.2715 65.7734C27.4529 64.8247 29.1105 65.2675 29.7471 65.4072C32.0575 65.9142 32.7429 67.8068 34.2871 69.1426C36.6166 71.1573 40.7382 70.9461 43.3838 69.6191C43.5341 67.8996 44.2003 66.6735 45.3145 65.4131C42.1578 64.8393 39.449 64.5093 36.7051 62.6182C33.3063 60.2756 31.8197 56.7387 31.418 52.7471C31.0041 48.6356 31.6018 44.9766 34.4658 41.8066C33.5612 40.3525 31.7808 35.5455 33.6143 33.8682C33.7423 33.7514 34.5991 33.6366 34.8359 33.6006C38.1115 33.4405 40.7952 34.7313 43.29 36.8145C49.2134 35.4961 52.9388 35.4634 58.8643 36.8252C62.3122 34.5492 64.5678 33.5447 68.6475 33.7588C69.4071 36.2905 69.2808 39.645 67.6885 41.8594C70.7033 45.4572 71.1243 48.2777 70.7207 52.8262C70.0037 60.8994 64.4867 64.6711 56.8057 65.3115C58.8835 68.3484 58.801 68.7208 58.7969 72.3838L58.7852 77.3281C58.7786 78.832 58.3839 81.5908 60.8506 80.9102C63.6659 80.1333 66.664 78.5102 69.0479 76.8242C75.641 72.1077 80.1208 65.0119 81.5303 57.0527C82.9364 48.9627 81.0394 40.648 76.2607 33.9561C71.5026 27.2985 64.284 22.793 56.1904 21.4287Z" fill="#D9D9D9"/>
</svg>
