<svg width="102" height="102" viewBox="0 0 102 102" fill="none" xmlns="http://www.w3.org/2000/svg">
<path d="M102 102H0V0H102V102ZM70.6719 29.0186C68.1744 29.4454 64.5939 30.7626 62.2041 31.7061C53.2342 35.2467 44.4386 39.3352 35.6514 43.3057C33.0866 44.4614 30.5137 45.6007 27.9336 46.7217C26.4305 47.3721 24.7685 48.0158 23.3047 48.7637C18.1349 51.4051 22.8906 52.4609 25.6592 53.5049C26.5445 53.8387 27.6968 54.1995 28.6113 54.5312C33.1336 56.3185 36.6694 55.6512 40.3877 52.6074C40.9268 52.166 42.0508 51.465 42.7061 51.0234L53.0957 43.9922C54.9516 42.7328 57.6736 40.7641 59.6143 39.7842C60.3666 39.4872 61.4706 38.9845 61.957 39.9053C62.0618 41.6142 57.0323 45.8644 55.7539 47.0557L49.2988 53.1484C47.9493 54.4228 46.515 55.625 45.3193 57.0586C43.9583 58.6905 44.1869 59.7188 45.7617 61.0439C46.6304 61.7748 47.5755 62.3882 48.502 63.0352L53.1602 66.2949L57.9404 69.6934C60.0957 71.2313 64.6974 74.8734 67.2881 71.7197C68.5775 70.15 69.0073 66.0311 69.3525 63.9043L70.6055 56.2734C71.439 51.1957 72.2361 46.1118 72.9961 41.0225C73.4758 37.8078 74.1646 34.2929 74.0215 31.0547C73.9286 28.9558 72.2108 28.95 70.6719 29.0186Z" fill="#D9D9D9"/>
</svg>
